<svg xmlns="http://www.w3.org/2000/svg" version="1.1" xmlns:xlink="http://www.w3.org/1999/xlink" xmlns:svgjs="http://svgjs.dev/svgjs" width="1000" height="186" viewBox="0 0 1000 186"><g transform="matrix(1,0,0,1,-0.6060606060606233,-0.576983020974879)"><svg viewBox="0 0 396 74" data-background-color="#ffffff" preserveAspectRatio="xMidYMid meet" height="186" width="1000" xmlns="http://www.w3.org/2000/svg" xmlns:xlink="http://www.w3.org/1999/xlink"><g id="tight-bounds" transform="matrix(1,0,0,1,0.2400000000000091,0.22955238468892958)"><svg viewBox="0 0 395.52 73.54089523062217" height="73.54089523062217" width="395.52"><g><svg viewBox="0 0 505.5837946021344 94.00557460845461" height="73.54089523062217" width="395.52"><g transform="matrix(1,0,0,1,0,12.992087373527376)"><svg viewBox="0 0 395.52 68.02139986139986" height="68.02139986139986" width="395.52"><g id="textblocktransform"><svg viewBox="0 0 395.52 68.02139986139986" height="68.02139986139986" width="395.52" id="textblock"><g><svg viewBox="0 0 395.52 68.02139986139986" height="68.02139986139986" width="395.52"><g transform="matrix(1,0,0,1,0,0)"><svg width="395.52" viewBox="1.5 -36.83 216.43 37.23" height="68.02139986139986" data-palette-color="#152232"><path d="M17.82-35.83L17.82-12.38Q17.82-9.38 17.09-7 16.35-4.63 14.91-2.99 13.48-1.35 11.38-0.48 9.28 0.4 6.55 0.4L6.55 0.4Q4.13 0.4 1.5-0.3L1.5-0.3Q1.55-1.03 1.63-1.74 1.7-2.45 1.78-3.15L1.78-3.15Q1.83-3.58 2.09-3.84 2.35-4.1 2.88-4.1L2.88-4.1Q3.33-4.1 4.08-3.88 4.83-3.65 6.08-3.65L6.08-3.65Q7.73-3.65 9.01-4.15 10.3-4.65 11.19-5.7 12.08-6.75 12.54-8.39 13-10.03 13-12.28L13-12.28 13-35.83 17.82-35.83ZM36.1-25.73L36.1-25.73Q38.87-25.73 41.11-24.8 43.35-23.88 44.91-22.18 46.47-20.48 47.31-18.06 48.15-15.65 48.15-12.68L48.15-12.68Q48.15-9.68 47.31-7.28 46.47-4.88 44.91-3.18 43.35-1.48 41.11-0.56 38.87 0.35 36.1 0.35L36.1 0.35Q33.32 0.35 31.09-0.56 28.85-1.48 27.27-3.18 25.7-4.88 24.85-7.28 24-9.68 24-12.68L24-12.68Q24-15.65 24.85-18.06 25.7-20.48 27.27-22.18 28.85-23.88 31.09-24.8 33.32-25.73 36.1-25.73ZM36.1-3.13L36.1-3.13Q39.85-3.13 41.7-5.64 43.55-8.15 43.55-12.65L43.55-12.65Q43.55-17.18 41.7-19.7 39.85-22.23 36.1-22.23L36.1-22.23Q34.2-22.23 32.8-21.58 31.4-20.93 30.46-19.7 29.52-18.48 29.06-16.69 28.6-14.9 28.6-12.65L28.6-12.65Q28.6-10.4 29.06-8.63 29.52-6.85 30.46-5.64 31.4-4.42 32.8-3.78 34.2-3.13 36.1-3.13ZM56.67 0L53.8 0 53.8-36.83 58.27-36.83 58.27-21.68Q59.85-23.5 61.88-24.61 63.92-25.73 66.55-25.73L66.55-25.73Q68.75-25.73 70.52-24.9 72.3-24.08 73.55-22.44 74.8-20.8 75.47-18.39 76.15-15.98 76.15-12.83L76.15-12.83Q76.15-10.03 75.4-7.61 74.65-5.2 73.23-3.44 71.82-1.68 69.78-0.66 67.75 0.35 65.2 0.35L65.2 0.35Q62.75 0.35 61.03-0.6 59.32-1.55 58.05-3.25L58.05-3.25 57.82-0.95Q57.62 0 56.67 0L56.67 0ZM65.09-22.18L65.09-22.18Q62.92-22.18 61.28-21.18 59.65-20.18 58.27-18.35L58.27-18.35 58.27-6.1Q59.47-4.45 60.93-3.78 62.4-3.1 64.2-3.1L64.2-3.1Q67.75-3.1 69.65-5.63 71.55-8.15 71.55-12.83L71.55-12.83Q71.55-15.3 71.11-17.07 70.67-18.85 69.84-19.99 69.02-21.13 67.82-21.65 66.62-22.18 65.09-22.18ZM103.02-13.4L97.27-13.4 97.27 0 92.44 0 92.44-35.83 103.02-35.83Q106.42-35.83 108.93-35.04 111.44-34.25 113.09-32.8 114.74-31.35 115.55-29.3 116.37-27.25 116.37-24.73L116.37-24.73Q116.37-22.23 115.49-20.15 114.62-18.07 112.93-16.57 111.24-15.08 108.74-14.24 106.24-13.4 103.02-13.4L103.02-13.4ZM97.27-32L97.27-17.25 103.02-17.25Q105.09-17.25 106.68-17.8 108.27-18.35 109.34-19.34 110.42-20.33 110.97-21.7 111.52-23.08 111.52-24.73L111.52-24.73Q111.52-28.15 109.4-30.08 107.29-32 103.02-32L103.02-32 97.27-32ZM131.29-25.73L131.29-25.73Q134.06-25.73 136.3-24.8 138.54-23.88 140.1-22.18 141.66-20.48 142.5-18.06 143.34-15.65 143.34-12.68L143.34-12.68Q143.34-9.68 142.5-7.28 141.66-4.88 140.1-3.18 138.54-1.48 136.3-0.56 134.06 0.35 131.29 0.35L131.29 0.35Q128.51 0.35 126.28-0.56 124.04-1.48 122.46-3.18 120.89-4.88 120.04-7.28 119.19-9.68 119.19-12.68L119.19-12.68Q119.19-15.65 120.04-18.06 120.89-20.48 122.46-22.18 124.04-23.88 126.28-24.8 128.51-25.73 131.29-25.73ZM131.29-3.13L131.29-3.13Q135.04-3.13 136.89-5.64 138.74-8.15 138.74-12.65L138.74-12.65Q138.74-17.18 136.89-19.7 135.04-22.23 131.29-22.23L131.29-22.23Q129.39-22.23 127.99-21.58 126.59-20.93 125.65-19.7 124.71-18.48 124.25-16.69 123.79-14.9 123.79-12.65L123.79-12.65Q123.79-10.4 124.25-8.63 124.71-6.85 125.65-5.64 126.59-4.42 127.99-3.78 129.39-3.13 131.29-3.13ZM153.29 0L148.84 0 148.84-25.33 151.39-25.33Q152.11-25.33 152.39-25.05 152.66-24.78 152.76-24.1L152.76-24.1 153.06-20.15Q154.36-22.8 156.27-24.29 158.19-25.78 160.76-25.78L160.76-25.78Q161.81-25.78 162.66-25.54 163.51-25.3 164.24-24.88L164.24-24.88 163.66-21.55Q163.49-20.93 162.89-20.93L162.89-20.93Q162.54-20.93 161.81-21.16 161.09-21.4 159.79-21.4L159.79-21.4Q157.46-21.4 155.9-20.05 154.34-18.7 153.29-16.13L153.29-16.13 153.29 0ZM176.66 0.4L176.66 0.4Q173.66 0.4 172.05-1.28 170.43-2.95 170.43-6.1L170.43-6.1 170.43-21.6 167.38-21.6Q166.98-21.6 166.71-21.84 166.43-22.08 166.43-22.58L166.43-22.58 166.43-24.35 170.58-24.88 171.61-32.7Q171.66-33.08 171.93-33.31 172.21-33.55 172.63-33.55L172.63-33.55 174.88-33.55 174.88-24.83 182.13-24.83 182.13-21.6 174.88-21.6 174.88-6.4Q174.88-4.8 175.66-4.03 176.43-3.25 177.66-3.25L177.66-3.25Q178.36-3.25 178.87-3.44 179.38-3.63 179.76-3.85 180.13-4.08 180.4-4.26 180.66-4.45 180.86-4.45L180.86-4.45Q181.21-4.45 181.48-4.03L181.48-4.03 182.78-1.9Q181.63-0.83 180.01-0.21 178.38 0.4 176.66 0.4ZM206.23-16.2L206.23 0 204.26 0Q203.61 0 203.21-0.2 202.81-0.4 202.68-1.05L202.68-1.05 202.18-3.4Q201.18-2.5 200.23-1.79 199.28-1.07 198.23-0.59 197.18-0.1 195.99 0.15 194.81 0.4 193.36 0.4L193.36 0.4Q191.88 0.4 190.59-0.01 189.31-0.43 188.36-1.25 187.41-2.08 186.84-3.34 186.28-4.6 186.28-6.33L186.28-6.33Q186.28-7.83 187.11-9.21 187.93-10.6 189.77-11.68 191.61-12.75 194.58-13.44 197.56-14.13 201.86-14.23L201.86-14.23 201.86-16.2Q201.86-19.15 200.59-20.66 199.33-22.18 196.86-22.18L196.86-22.18Q195.23-22.18 194.12-21.76 193.01-21.35 192.19-20.84 191.38-20.33 190.79-19.91 190.21-19.5 189.63-19.5L189.63-19.5Q189.18-19.5 188.84-19.74 188.51-19.98 188.31-20.33L188.31-20.33 187.51-21.75Q189.61-23.78 192.03-24.78 194.46-25.78 197.41-25.78L197.41-25.78Q199.53-25.78 201.18-25.08 202.83-24.38 203.96-23.13 205.08-21.88 205.66-20.1 206.23-18.32 206.23-16.2L206.23-16.2ZM194.68-2.73L194.68-2.73Q195.86-2.73 196.83-2.96 197.81-3.2 198.67-3.64 199.53-4.08 200.32-4.7 201.11-5.33 201.86-6.13L201.86-6.13 201.86-11.4Q198.78-11.3 196.63-10.91 194.48-10.53 193.13-9.9 191.78-9.28 191.17-8.43 190.56-7.58 190.56-6.53L190.56-6.53Q190.56-5.53 190.88-4.8 191.21-4.08 191.76-3.61 192.31-3.15 193.06-2.94 193.81-2.73 194.68-2.73ZM213.48-36.83L217.93-36.83 217.93 0 213.48 0 213.48-36.83Z" opacity="1" transform="matrix(1,0,0,1,0,0)" fill="#152232" class="wordmark-text-0" data-fill-palette-color="primary" id="text-0"></path></svg></g></svg></g></svg></g></svg></g><g transform="matrix(1,0,0,1,411.5782199936798,0)"><svg viewBox="0 0 94.00557460845461 94.00557460845461" height="94.00557460845461" width="94.00557460845461"><g data-palette-color="#5ebc67"><rect width="25.69485705964426" height="94.00557460845461" fill="#5ebc67" stroke="transparent" data-fill-palette-color="accent" x="0" fill-opacity="1"></rect><rect width="25.69485705964426" height="94.00557460845461" fill="#5ebc67" stroke="transparent" data-fill-palette-color="accent" x="31.335191536151537" fill-opacity="0.75"></rect><rect width="25.69485705964426" height="94.00557460845461" fill="#5ebc67" stroke="transparent" data-fill-palette-color="accent" x="62.670383072303075" fill-opacity="0.5"></rect></g></svg></g></svg></g><defs></defs></svg><rect width="395.52" height="73.54089523062217" fill="none" stroke="none" visibility="hidden"></rect></g></svg></g></svg>